<svg version="1.0" xmlns="http://www.w3.org/2000/svg" width="300.000000pt" height="156.000000pt" viewBox="0 0 300.000000 156.000000" preserveAspectRatio="xMidYMid meet">
	<metadata>
		Created by potrace 1.10, written by Peter Selinger 2001-2011
	</metadata>
	<g transform="translate(0.000000,116.000000) scale(0.0400000,-0.0400000)" fill="#000000" stroke="none">
		<path d="M555 1207 c-83 -47 -109 -137 -61 -208 21 -30 46 -46 145 -89 143
-63 176 -92 176 -155 0 -74 -66 -125 -162 -125 -60 0 -111 25 -140 69 -18 27
-24 30 -29 17 -13 -34 66 -89 144 -102 111 -18 232 71 232 170 0 83 -44 128
-183 185 -114 47 -126 54 -151 93 -34 52 -2 121 67 147 65 25 152 4 183 -44
11 -17 20 -23 27 -16 14 14 -7 38 -54 62 -54 27 -142 25 -194 -4z" />
		<path d="M900 1219 c0 -8 17 -10 55 -7 l55 5 -15 -23 c-8 -13 -15 -34 -15 -46
0 -13 47 -130 105 -261 58 -131 105 -242 105 -247 0 -5 4 -12 10 -15 13 -8 42
65 31 79 -5 6 -55 116 -111 243 -94 214 -109 263 -80 263 5 0 10 4 10 8 0 4
-34 9 -75 10 -52 2 -75 -1 -75 -9z" />
		<path d="M1380 1220 c0 -5 14 -10 31 -10 21 0 29 -4 26 -12 -3 -7 -48 -118
-102 -247 -53 -128 -94 -236 -91 -238 5 -5 14 14 76 167 97 236 120 286 145
307 14 13 35 23 46 23 10 0 19 5 19 10 0 6 -32 10 -75 10 -43 0 -75 -4 -75
-10z" />
		<path d="M1680 1219 c-41 -16 -90 -70 -101 -111 -8 -31 -6 -46 9 -82 24 -53
49 -71 177 -125 111 -47 139 -68 156 -118 9 -27 7 -39 -8 -70 -10 -20 -30 -46
-45 -56 -29 -22 -119 -34 -162 -23 -32 8 -96 63 -96 83 0 8 -4 11 -10 8 -35
-22 19 -78 98 -101 152 -45 303 72 264 205 -17 55 -57 86 -182 141 -63 28
-123 59 -133 69 -30 30 -33 91 -6 125 58 73 198 73 246 -1 11 -16 19 -21 26
-14 14 14 -7 38 -54 62 -42 21 -136 25 -179 8z" />
		<path d="M2020 1220 c0 -8 19 -11 55 -8 52 3 68 -3 45 -17 -18 -11 -11 -64 13
-91 12 -14 99 -127 192 -252 94 -124 176 -228 183 -230 8 -2 12 8 12 31 0 30
-28 72 -185 281 -170 226 -202 276 -175 276 6 0 10 4 10 8 0 4 -34 9 -75 10
-51 2 -75 -1 -75 -8z" />
		<path d="M2440 1220 c0 -5 23 -10 51 -10 31 0 48 -4 44 -10 -4 -6 -11 -8 -16
-5 -5 4 -8 -89 -7 -237 l2 -243 6 226 c4 205 7 229 24 248 11 12 25 21 33 21
7 0 13 5 13 10 0 6 -32 10 -75 10 -43 0 -75 -4 -75 -10z" />
		<path d="M2106 1074 c-4 -14 -6 -108 -6 -210 1 -163 -1 -188 -16 -205 -9 -10
-23 -19 -30 -19 -7 0 -16 -4 -19 -10 -4 -6 23 -10 74 -10 51 0 81 4 81 11 0 7
-19 8 -57 3 -53 -6 -57 -5 -44 9 7 9 17 14 22 11 5 -3 9 92 9 220 0 124 -2
226 -4 226 -2 0 -7 -11 -10 -26z" />
	</g>
</svg>
